<svg width="22" height="22" viewBox="0 0 22 22" fill="none" xmlns="http://www.w3.org/2000/svg">
<circle cx="11" cy="11" r="11" fill="#2FAC66"/>
<path d="M12.008 11.796C12.008 12.452 11.86 13.032 11.564 13.536C11.276 14.032 10.884 14.42 10.388 14.7C9.9 14.98 9.352 15.12 8.744 15.12C8.136 15.12 7.584 14.98 7.088 14.7C6.6 14.42 6.208 14.032 5.912 13.536C5.624 13.032 5.48 12.452 5.48 11.796C5.48 11.14 5.624 10.564 5.912 10.068C6.208 9.564 6.6 9.172 7.088 8.892C7.584 8.604 8.136 8.46 8.744 8.46C9.352 8.46 9.9 8.604 10.388 8.892C10.884 9.172 11.276 9.564 11.564 10.068C11.86 10.564 12.008 11.14 12.008 11.796ZM10.568 11.796C10.568 11.388 10.484 11.036 10.316 10.74C10.156 10.436 9.936 10.2 9.656 10.032C9.384 9.864 9.08 9.78 8.744 9.78C8.408 9.78 8.1 9.864 7.82 10.032C7.548 10.2 7.328 10.436 7.16 10.74C7 11.036 6.92 11.388 6.92 11.796C6.92 12.196 7 12.548 7.16 12.852C7.328 13.148 7.548 13.38 7.82 13.548C8.1 13.716 8.408 13.8 8.744 13.8C9.08 13.8 9.384 13.716 9.656 13.548C9.936 13.38 10.156 13.148 10.316 12.852C10.484 12.548 10.568 12.196 10.568 11.796ZM13.9883 15C13.7803 15 13.6083 14.932 13.4723 14.796C13.3363 14.652 13.2683 14.476 13.2683 14.268V9.312C13.2683 9.104 13.3363 8.932 13.4723 8.796C13.6083 8.652 13.7803 8.58 13.9883 8.58C14.1963 8.58 14.3683 8.652 14.5043 8.796C14.6403 8.932 14.7083 9.104 14.7083 9.312V10.44L14.6243 9.636C14.7123 9.444 14.8243 9.276 14.9603 9.132C15.1043 8.98 15.2643 8.856 15.4403 8.76C15.6163 8.656 15.8043 8.58 16.0043 8.532C16.2043 8.484 16.4043 8.46 16.6043 8.46C16.8443 8.46 17.0443 8.528 17.2043 8.664C17.3723 8.8 17.4563 8.96 17.4563 9.144C17.4563 9.408 17.3883 9.6 17.2523 9.72C17.1163 9.832 16.9683 9.888 16.8083 9.888C16.6563 9.888 16.5163 9.86 16.3883 9.804C16.2683 9.748 16.1283 9.72 15.9683 9.72C15.8243 9.72 15.6763 9.756 15.5243 9.828C15.3803 9.892 15.2443 9.996 15.1163 10.14C14.9963 10.284 14.8963 10.464 14.8163 10.68C14.7443 10.888 14.7083 11.136 14.7083 11.424V14.268C14.7083 14.476 14.6403 14.652 14.5043 14.796C14.3683 14.932 14.1963 15 13.9883 15Z" fill="white"/>
</svg>
