<svg width="24" height="18" viewBox="0 0 24 18" fill="none" xmlns="http://www.w3.org/2000/svg">
<path d="M18.1934 9.428C18.1934 10.2707 18.7201 11.166 19.7734 12.114C20.8267 13.062 21.3534 13.694 21.3534 14.01C21.3534 16.3273 20.2474 17.486 18.0354 17.486C16.7714 17.486 15.6127 17.1173 14.5594 16.38C13.5061 15.5373 12.9794 14.2733 12.9794 12.588C12.9794 10.7973 13.9274 8.322 15.8234 5.162C17.8247 2.002 20.1421 0.421996 22.7754 0.421996C23.1967 0.421996 23.4074 0.527329 23.4074 0.737996C19.9314 4.214 18.1934 7.11066 18.1934 9.428ZM6.1854 9.26999C6.1854 10.1127 6.71207 11.008 7.7654 11.956C8.81873 12.904 9.3454 13.5887 9.3454 14.01C9.3454 16.3273 8.18673 17.486 5.8694 17.486C4.6054 17.486 3.44673 17.1173 2.3934 16.38C1.4454 15.6427 0.971399 14.3787 0.971399 12.588C0.971399 10.7973 1.97207 8.322 3.9734 5.162C5.97473 2.002 8.18673 0.421996 10.6094 0.421996C11.0307 0.421996 11.2414 0.579995 11.2414 0.895994C7.87073 4.688 6.1854 7.47933 6.1854 9.26999Z" fill="#EB5933"/>
</svg>
